<svg width="120" height="16" viewBox="0 0 120 16" fill="none" xmlns="http://www.w3.org/2000/svg"><g clip-path="url(#clip0)" fill="#000"><path d="M16.084.994c-1.595.214-1.986.428-2.86 2.562-.641 1.563-3.931 9.504-5.1 12.444H7.34C5.934 12.184 3.885 6.637 2.525 3.128 1.863 1.373 1.453 1.136 0 .994V.336h6.053v.658c-1.764.191-1.86.474-1.526 1.353.596 1.729 2.337 6.447 3.836 10.384 1.264-3.058 2.836-6.914 3.971-9.91.523-1.376.239-1.59-1.717-1.827V.336h5.48l-.013.658zM26.227 15.74v-.658c1.953-.211 2.145-.307 2.145-2.305V3.342c0-2.038-.192-2.134-2.145-2.348V.336h6.387v.658c-1.985.214-2.17.31-2.17 2.348v9.412c0 2.038.191 2.11 2.17 2.305v.658l-6.387.023zm30.649.19c-.308 0-.572-.025-.88-.048-1.741-.119-2.671-.57-3.72-2.038-.88-1.209-1.738-2.703-2.502-3.911-.477-.761-.784-.903-1.986-.903h-.837v3.724c0 2.015.265 2.133 2.171 2.304v.659h-6.377v-.659c1.985-.21 2.144-.306 2.144-2.304V3.295c0-2.014-.261-2.087-2.144-2.304V.333h6.076c1.74 0 2.909.214 3.812.806a3.53 3.53 0 011.622 3.13c0 2.039-1.324 3.32-3.075 4.077.43.737 1.453 2.324 2.172 3.39a21.817 21.817 0 001.88 2.443 3.427 3.427 0 001.74 1.09l-.096.662zm-8.793-7.716c1.24 0 2.025-.188 2.62-.685.93-.688 1.325-1.646 1.325-2.917 0-2.538-1.691-3.46-3.525-3.46-.692 0-1.099.092-1.264.237-.215.165-.288.402-.288 1.018v5.807h1.132zM84.02.994c-1.522.168-2.025.405-2.095 1.495-.026.757-.073 1.755-.073 3.95v9.509h-.906L70.749 3.556v5.926c0 2.133.07 3.2.12 3.888.046 1.208.641 1.564 2.356 1.705v.659h-5.789v-.659c1.476-.118 2.049-.474 2.145-1.646.07-.76.119-1.827.119-3.984v-6.03c0-.66-.05-1.045-.477-1.568-.453-.593-.953-.734-2.12-.853V.336h3.573L80.78 12.26V6.446c0-2.202-.046-3.223-.119-3.934-.073-1.067-.619-1.4-2.525-1.518V.336h5.884v.658zm19.973 14.746v-.659c1.549-.187 1.737-.424 1.406-1.316-.331-.893-.787-2.11-1.287-3.602h-5.15c-.38 1.067-.738 1.975-1.072 2.963-.523 1.54-.189 1.728 1.764 1.975v.659H94.15v-.66c1.503-.187 1.883-.355 2.718-2.489L101.799.168l.764-.142c1.499 4.053 3.144 8.534 4.633 12.636.762 2.06.977 2.252 2.668 2.44v.658l-5.871-.02zM101.61 3.105c-.765 2.037-1.575 4.194-2.29 6.067h4.458l-2.168-6.067z"/></g><defs><clipPath id="clip0"><path fill="#fff" d="M0 0h120v16H0z"/></clipPath></defs></svg>