<svg width="65" height="20" viewBox="0 0 65 20" fill="none" xmlns="http://www.w3.org/2000/svg"><path fill-rule="evenodd" clip-rule="evenodd" d="M12.103 5c-2.845 0-4.928 2.093-4.928 5 0 1.133.318 2.133.877 2.947H.978c-.546 0-.978.466-.978 1.026V15h12.116c2.845 0 4.915-2.093 4.915-5-.013-2.907-2.07-5-4.928-5zm-.013 8.253c-1.701 0-2.946-1.346-2.946-3.253 0-1.88 1.232-3.253 2.946-3.253 1.728 0 2.96 1.373 2.96 3.253 0 1.907-1.232 3.253-2.96 3.253zM28.69 10c0 2.907-2.058 5-4.915 5-2.845 0-4.928-2.093-4.928-5s2.083-5 4.928-5c2.845 0 4.915 2.093 4.915 5zm-7.874 0c0 1.907 1.232 3.253 2.946 3.253 1.727 0 2.96-1.346 2.96-3.253 0-1.88-1.233-3.253-2.96-3.253-1.714 0-2.946 1.373-2.946 3.253zm18.276-.747v4.72h-.038V15h-.978c-.534 0-.978-.453-.978-1.027v-4.72c0-1.546-.914-2.56-2.324-2.56-1.41 0-2.324 1.027-2.324 2.56V15h-.978c-.534 0-.978-.453-.978-1.027v-4.72c0-2.533 1.74-4.253 4.28-4.253 2.565 0 4.318 1.72 4.318 4.253zm10.4-3.426V5h-.965c-.546 0-.978.467-.978 1.027v4.733c0 1.533-.94 2.533-2.35 2.533-1.409 0-2.323-1-2.323-2.533V5h-.966c-.546 0-.978.453-.978 1.027v4.746c0 2.52 1.74 4.227 4.293 4.227 2.54 0 4.28-1.72 4.28-4.227V6.227l-.013-.4zm8.675 1.026C58.74 5.693 59.907 5 61.393 5c2.184 0 3.62 1.533 3.607 3.867V15h-.978c-.533 0-.978-.453-.978-1.027v-5.16c0-1.293-.762-2.173-1.943-2.173s-1.968.88-1.968 2.173V15h-.966c-.533 0-.978-.453-.978-1.027v-5.16c0-1.293-.787-2.173-1.968-2.173s-1.943.88-1.943 2.173v6.174H52.3c-.533 0-.978-.454-.978-1.027V8.867c0-2.334 1.422-3.867 3.62-3.867 1.485 0 2.654.693 3.225 1.853z" fill="#000"/></svg>