<svg width="59" height="20" viewBox="0 0 59 20" fill="none" xmlns="http://www.w3.org/2000/svg"><path clip-rule="evenodd" d="M15.862 4.16A3.703 3.703 0 0013.172 3c-1.008 0-1.96.403-2.69 1.16L9 5.695 7.518 4.159A3.705 3.705 0 004.828 3c-1.008 0-1.96.403-2.69 1.16-1.517 1.572-1.517 4.156 0 5.728L9 17l6.862-7.112c1.517-1.572 1.518-4.156 0-5.729z" stroke="#000"/><path d="M44 6.079h11L56 18H43l1-11.92z" stroke="#000"/><path d="M52.677 7.96V5.08a3.08 3.08 0 00-3.08-3.079v0a3.079 3.079 0 00-3.078 3.079v2.882" stroke="#000" stroke-linecap="round" stroke-linejoin="round"/><rect x="21" y="2" width="16" height="16" rx="5" stroke="#000"/><rect x="25.444" y="6.444" width="7" height="7" rx="3.5" stroke="#000"/><rect x="32.556" y="4.667" width="1" height="1" rx=".5" stroke="#000"/></svg>